<svg xmlns="http://www.w3.org/2000/svg" width="400" height="400" viewBox="0 0 124 124" fill="none">
  <!-- Gradient Background Definition -->
  <defs>
    <linearGradient id="swiftuiGradient" gradientUnits="userSpaceOnUse" x1="62" y1="0" x2="62" y2="124">
      <stop offset="0%" stop-color="#00e5ff"/>
      <stop offset="100%" stop-color="#2962ff"/>
    </linearGradient>
    <linearGradient id="wingShadowGradient" gradientUnits="userSpaceOnUse" x1="0" y1="0" x2="1" y2="1">
      <stop offset="0%" stop-color="rgba(0,0,0,0.15)" />
      <stop offset="1" stop-color="rgba(0,0,0,0)" />
    </linearGradient>
  </defs>

  <!-- Rounded Rectangle with Gradient -->
  <rect width="124" height="124" rx="24" fill="url(#swiftuiGradient)"/>

  <!-- Shadow Gradient Between the Wings -->
  <path d="M50,40 L80,70 L60,90 L30,60 Z" fill="url(#wingShadowGradient)" transform="translate(10, 10)"/>

  <!-- Enlarged Bird Icon -->
  <path fill="#000000" d="M30.56,34.5c0,0,18.5,28,34,37c-6,2-18.8,9.8-41-4c5.8,8,16.1,24,41,22.5
    c8.7-0.4,14-3.2,18.9-5.1c4.9-1.9,9.9-2,14.1,6.4c0.9-7.6,1.1-14.7-6.6-22.8c0,0,7.5-27-24.6-48.3
    c6.7,12.5,10.6,19.8,7.4,37.3c-7-4.6-32.8-25.3-38.5-32.1c4.2,7.4,16.4,23.7,20.6,27.8C52,58.5,30.56,34.5,30.56,34.5z"/>
</svg>
